<svg width="347" height="82" viewBox="0 0 347 82" fill="none" xmlns="http://www.w3.org/2000/svg">
<g filter="url(#filter0_d_2_25)">
<path d="M4.76003 0.517517L20.9319 30.1894L37.1389 0.517517V58.666H30.5999V32.3691L30.7757 25.3027L27.0491 32.4394L20.9671 43.5136V43.5839L20.9319 43.5488V43.5136L14.8147 32.4042L11.0882 25.3027L11.2991 32.2988V58.666H4.76003V0.517517ZM49.4788 66.0488C50.3928 65.3456 51.1897 64.6542 51.8694 63.9745C52.5491 63.2949 53.1233 62.6035 53.5921 61.9003C54.0608 61.1972 54.4358 60.4472 54.7171 59.6503C54.9983 58.8769 55.1858 58.0214 55.2796 57.0839L44.3811 21.33H51.0608L56.3342 40.3144L58.0569 48.2245L59.7796 40.3495L64.6311 21.33H71.3108L62.1702 54.7988C61.7249 56.3925 61.303 57.8105 60.9046 59.0527C60.5061 60.3183 60.096 61.4433 59.6741 62.4277C59.2522 63.4355 58.8069 64.3261 58.3382 65.0995C57.8928 65.8964 57.3772 66.623 56.7913 67.2792C56.2288 67.9589 55.596 68.6035 54.8928 69.2128C54.2132 69.8456 53.428 70.4785 52.5374 71.1113L49.4788 66.0488ZM104.85 59.3339C102.6 59.3339 100.455 58.83 98.4163 57.8222C96.3772 56.8144 94.596 55.1738 93.0725 52.9003C91.5491 50.6269 90.3303 47.6738 89.4163 44.041C88.5257 40.3847 88.0803 35.9316 88.0803 30.6816C88.0803 25.4316 88.5257 20.9902 89.4163 17.3574C90.3303 13.7011 91.5491 10.748 93.0725 8.49799C94.596 6.22455 96.3772 4.58392 98.4163 3.57611C100.455 2.54486 102.6 2.02924 104.85 2.02924C106.139 2.02924 107.323 2.14642 108.401 2.3808C109.502 2.61517 110.627 2.97845 111.776 3.47064L108.858 9.1308C107.99 8.73236 106.948 8.53314 105.729 8.53314C104.416 8.53314 103.115 8.93158 101.826 9.72845C100.537 10.5019 99.3772 11.7675 98.346 13.5253C97.3147 15.2831 96.471 17.5683 95.8147 20.3808C95.1819 23.1933 94.8655 26.6269 94.8655 30.6816C94.8655 34.7363 95.1819 38.1699 95.8147 40.9824C96.471 43.7949 97.3147 46.08 98.346 47.8378C99.3772 49.5956 100.537 50.873 101.826 51.6699C103.115 52.4433 104.416 52.83 105.729 52.83C106.948 52.83 107.99 52.6308 108.858 52.2324L111.776 57.8925C110.627 58.3847 109.502 58.748 108.401 58.9824C107.323 59.2167 106.139 59.3339 104.85 59.3339ZM131.112 59.3339C129.354 59.3339 127.666 58.9355 126.049 58.1386C124.432 57.3417 122.99 56.1347 121.725 54.5175C120.483 52.9003 119.487 50.8847 118.737 48.4706C117.987 46.0566 117.612 43.2324 117.612 39.998C117.612 36.7636 117.987 33.9394 118.737 31.5253C119.487 29.1113 120.483 27.0956 121.725 25.4785C122.99 23.8613 124.432 22.6542 126.049 21.8574C127.666 21.0605 129.354 20.662 131.112 20.662C132.869 20.662 134.557 21.0605 136.174 21.8574C137.791 22.6542 139.221 23.8613 140.463 25.4785C141.729 27.0956 142.737 29.1113 143.487 31.5253C144.237 33.9394 144.612 36.7636 144.612 39.998C144.612 43.2324 144.237 46.0566 143.487 48.4706C142.737 50.8847 141.729 52.9003 140.463 54.5175C139.221 56.1347 137.791 57.3417 136.174 58.1386C134.557 58.9355 132.869 59.3339 131.112 59.3339ZM131.112 53.1816C131.955 53.1816 132.787 52.9589 133.608 52.5136C134.428 52.0449 135.166 51.2949 135.823 50.2636C136.502 49.2324 137.041 47.873 137.44 46.1855C137.862 44.498 138.073 42.4355 138.073 39.998C138.073 37.5605 137.862 35.5097 137.44 33.8456C137.041 32.1581 136.502 30.7988 135.823 29.7675C135.166 28.7128 134.428 27.9628 133.608 27.5175C132.787 27.0488 131.955 26.8144 131.112 26.8144C130.268 26.8144 129.436 27.0488 128.615 27.5175C127.795 27.9628 127.045 28.7128 126.365 29.7675C125.709 30.7988 125.17 32.1581 124.748 33.8456C124.35 35.5097 124.151 37.5605 124.151 39.998C124.151 42.4355 124.35 44.498 124.748 46.1855C125.17 47.873 125.709 49.2324 126.365 50.2636C127.045 51.2949 127.795 52.0449 128.615 52.5136C129.436 52.9589 130.268 53.1816 131.112 53.1816ZM164.158 59.3339C162.401 59.3339 160.713 58.9355 159.096 58.1386C157.479 57.3417 156.037 56.1347 154.772 54.5175C153.53 52.9003 152.533 50.8847 151.783 48.4706C151.033 46.0566 150.658 43.2324 150.658 39.998C150.658 36.7636 151.033 33.9394 151.783 31.5253C152.533 29.1113 153.53 27.0956 154.772 25.4785C156.037 23.8613 157.479 22.6542 159.096 21.8574C160.713 21.0605 162.401 20.662 164.158 20.662C165.916 20.662 167.604 21.0605 169.221 21.8574C170.838 22.6542 172.268 23.8613 173.51 25.4785C174.776 27.0956 175.783 29.1113 176.533 31.5253C177.283 33.9394 177.658 36.7636 177.658 39.998C177.658 43.2324 177.283 46.0566 176.533 48.4706C175.783 50.8847 174.776 52.9003 173.51 54.5175C172.268 56.1347 170.838 57.3417 169.221 58.1386C167.604 58.9355 165.916 59.3339 164.158 59.3339ZM164.158 53.1816C165.002 53.1816 165.834 52.9589 166.655 52.5136C167.475 52.0449 168.213 51.2949 168.869 50.2636C169.549 49.2324 170.088 47.873 170.487 46.1855C170.908 44.498 171.119 42.4355 171.119 39.998C171.119 37.5605 170.908 35.5097 170.487 33.8456C170.088 32.1581 169.549 30.7988 168.869 29.7675C168.213 28.7128 167.475 27.9628 166.655 27.5175C165.834 27.0488 165.002 26.8144 164.158 26.8144C163.315 26.8144 162.483 27.0488 161.662 27.5175C160.842 27.9628 160.092 28.7128 159.412 29.7675C158.756 30.7988 158.217 32.1581 157.795 33.8456C157.397 35.5097 157.198 37.5605 157.198 39.998C157.198 42.4355 157.397 44.498 157.795 46.1855C158.217 47.873 158.756 49.2324 159.412 50.2636C160.092 51.2949 160.842 52.0449 161.662 52.5136C162.483 52.9589 163.315 53.1816 164.158 53.1816ZM185.78 2.66205H192.037V38.5917H192.073L202.444 21.33H209.123L198.049 39.5058L210.987 58.666H203.252L192.037 41.7206V58.666H185.78V2.66205ZM218.053 2.66205H224.311V22.0331C225.061 21.5878 225.858 21.248 226.701 21.0136C227.545 20.7792 228.424 20.662 229.338 20.662C231.143 20.662 232.854 21.037 234.471 21.787C236.112 22.537 237.541 23.6972 238.76 25.2675C239.979 26.8378 240.94 28.8417 241.643 31.2792C242.369 33.7167 242.733 36.623 242.733 39.998C242.733 43.373 242.369 46.2792 241.643 48.7167C240.94 51.1542 239.979 53.1581 238.76 54.7285C237.541 56.2988 236.112 57.4589 234.471 58.2089C232.854 58.9589 231.143 59.3339 229.338 59.3339C226.502 59.3339 224.112 58.3261 222.166 56.3105L218.053 59.2636V2.66205ZM224.311 51.6699C224.92 52.2324 225.612 52.666 226.385 52.9706C227.182 53.2753 228.026 53.4277 228.916 53.4277C229.877 53.4277 230.803 53.2167 231.694 52.7949C232.584 52.373 233.369 51.6581 234.049 50.6503C234.752 49.6191 235.315 48.248 235.737 46.537C236.158 44.8027 236.369 42.623 236.369 39.998C236.369 37.373 236.158 35.205 235.737 33.4941C235.315 31.7597 234.752 30.3886 234.049 29.3808C233.369 28.3495 232.584 27.623 231.694 27.2011C230.803 26.7792 229.877 26.5683 228.916 26.5683C227.112 26.5683 225.576 27.166 224.311 28.3613V51.6699ZM262.737 59.3339C260.979 59.3339 259.291 58.9355 257.674 58.1386C256.057 57.3417 254.615 56.1347 253.35 54.5175C252.108 52.9003 251.112 50.8847 250.362 48.4706C249.612 46.0566 249.237 43.2324 249.237 39.998C249.237 36.7636 249.612 33.9394 250.362 31.5253C251.112 29.1113 252.108 27.0956 253.35 25.4785C254.615 23.8613 256.057 22.6542 257.674 21.8574C259.291 21.0605 260.979 20.662 262.737 20.662C264.494 20.662 266.182 21.0605 267.799 21.8574C269.416 22.6542 270.846 23.8613 272.088 25.4785C273.354 27.0956 274.362 29.1113 275.112 31.5253C275.862 33.9394 276.237 36.7636 276.237 39.998C276.237 43.2324 275.862 46.0566 275.112 48.4706C274.362 50.8847 273.354 52.9003 272.088 54.5175C270.846 56.1347 269.416 57.3417 267.799 58.1386C266.182 58.9355 264.494 59.3339 262.737 59.3339ZM262.737 53.1816C263.58 53.1816 264.412 52.9589 265.233 52.5136C266.053 52.0449 266.791 51.2949 267.448 50.2636C268.127 49.2324 268.666 47.873 269.065 46.1855C269.487 44.498 269.698 42.4355 269.698 39.998C269.698 37.5605 269.487 35.5097 269.065 33.8456C268.666 32.1581 268.127 30.7988 267.448 29.7675C266.791 28.7128 266.053 27.9628 265.233 27.5175C264.412 27.0488 263.58 26.8144 262.737 26.8144C261.893 26.8144 261.061 27.0488 260.24 27.5175C259.42 27.9628 258.67 28.7128 257.99 29.7675C257.334 30.7988 256.795 32.1581 256.373 33.8456C255.975 35.5097 255.776 37.5605 255.776 39.998C255.776 42.4355 255.975 44.498 256.373 46.1855C256.795 47.873 257.334 49.2324 257.99 50.2636C258.67 51.2949 259.42 52.0449 260.24 52.5136C261.061 52.9589 261.893 53.1816 262.737 53.1816ZM295.783 59.3339C294.026 59.3339 292.338 58.9355 290.721 58.1386C289.104 57.3417 287.662 56.1347 286.397 54.5175C285.155 52.9003 284.158 50.8847 283.408 48.4706C282.658 46.0566 282.283 43.2324 282.283 39.998C282.283 36.7636 282.658 33.9394 283.408 31.5253C284.158 29.1113 285.155 27.0956 286.397 25.4785C287.662 23.8613 289.104 22.6542 290.721 21.8574C292.338 21.0605 294.026 20.662 295.783 20.662C297.541 20.662 299.229 21.0605 300.846 21.8574C302.463 22.6542 303.893 23.8613 305.135 25.4785C306.401 27.0956 307.408 29.1113 308.158 31.5253C308.908 33.9394 309.283 36.7636 309.283 39.998C309.283 43.2324 308.908 46.0566 308.158 48.4706C307.408 50.8847 306.401 52.9003 305.135 54.5175C303.893 56.1347 302.463 57.3417 300.846 58.1386C299.229 58.9355 297.541 59.3339 295.783 59.3339ZM295.783 53.1816C296.627 53.1816 297.459 52.9589 298.28 52.5136C299.1 52.0449 299.838 51.2949 300.494 50.2636C301.174 49.2324 301.713 47.873 302.112 46.1855C302.533 44.498 302.744 42.4355 302.744 39.998C302.744 37.5605 302.533 35.5097 302.112 33.8456C301.713 32.1581 301.174 30.7988 300.494 29.7675C299.838 28.7128 299.1 27.9628 298.28 27.5175C297.459 27.0488 296.627 26.8144 295.783 26.8144C294.94 26.8144 294.108 27.0488 293.287 27.5175C292.467 27.9628 291.717 28.7128 291.037 29.7675C290.381 30.7988 289.842 32.1581 289.42 33.8456C289.022 35.5097 288.823 37.5605 288.823 39.998C288.823 42.4355 289.022 44.498 289.42 46.1855C289.842 47.873 290.381 49.2324 291.037 50.2636C291.717 51.2949 292.467 52.0449 293.287 52.5136C294.108 52.9589 294.94 53.1816 295.783 53.1816ZM317.405 2.66205H323.662V38.5917H323.698L334.069 21.33H340.748L329.674 39.5058L342.612 58.666H334.877L323.662 41.7206V58.666H317.405V2.66205Z" fill="black"/>
</g>
<defs>
<filter id="filter0_d_2_25" x="0.760025" y="0.517517" width="345.852" height="80.5938" filterUnits="userSpaceOnUse" color-interpolation-filters="sRGB">
<feFlood flood-opacity="0" result="BackgroundImageFix"/>
<feColorMatrix in="SourceAlpha" type="matrix" values="0 0 0 0 0 0 0 0 0 0 0 0 0 0 0 0 0 0 127 0" result="hardAlpha"/>
<feOffset dy="6"/>
<feGaussianBlur stdDeviation="2"/>
<feComposite in2="hardAlpha" operator="out"/>
<feColorMatrix type="matrix" values="0 0 0 0 0 0 0 0 0 0 0 0 0 0 0 0 0 0 0.35 0"/>
<feBlend mode="normal" in2="BackgroundImageFix" result="effect1_dropShadow_2_25"/>
<feBlend mode="normal" in="SourceGraphic" in2="effect1_dropShadow_2_25" result="shape"/>
</filter>
</defs>
</svg>
